<svg width="405" height="460" viewBox="0 0 405 460" fill="none" xmlns="http://www.w3.org/2000/svg">
<g filter="url(#filter0_d)">
<path d="M33.0029 440V419.35H36.1529V440H33.0029ZM37.2029 440V419.35H40.3529V440H37.2029ZM41.4029 440V419.35H42.4529V440H41.4029ZM46.6529 440V419.35H47.7029V440H46.6529ZM48.7529 440V419.35H49.8029V440H48.7529ZM42.3829 451.305C41.7763 451.305 41.2396 451.153 40.7729 450.85C40.2829 450.547 39.8979 450.092 39.6179 449.485C39.3379 448.855 39.1979 448.073 39.1979 447.14C39.1979 446.16 39.3496 445.355 39.6529 444.725C39.9563 444.118 40.3413 443.675 40.8079 443.395C41.2746 443.138 41.7763 443.01 42.3129 443.01C42.8963 443.01 43.3979 443.15 43.8179 443.43C44.2379 443.71 44.5529 444.095 44.7629 444.585L43.9929 444.97L43.8879 445.005L43.8529 444.935V444.83C43.8529 444.737 43.7946 444.608 43.6779 444.445C43.4913 444.188 43.2813 444.002 43.0479 443.885C42.8146 443.768 42.5696 443.71 42.3129 443.71C41.6129 443.71 41.0646 444.013 40.6679 444.62C40.2946 445.203 40.1079 446.032 40.1079 447.105C40.1079 447.758 40.2013 448.353 40.3879 448.89C40.5979 449.403 40.8663 449.8 41.1929 450.08C41.5429 450.36 41.9279 450.5 42.3479 450.5C42.6746 450.5 42.9779 450.418 43.2579 450.255C43.5613 450.068 43.8063 449.823 43.9929 449.52L44.6579 449.975C44.3779 450.418 44.0629 450.745 43.7129 450.955C43.3396 451.188 42.8963 451.305 42.3829 451.305ZM50.8447 440V419.35H53.9947V440H50.8447ZM55.0447 440V419.35H56.0947V440H55.0447ZM57.1447 440V419.35H58.1947V440H57.1447ZM59.2447 440V419.35H62.3947V440H59.2447ZM66.5947 440V419.35H67.6447V440H66.5947ZM57.2497 443.045H59.6297C60.5631 443.045 61.2397 443.255 61.6597 443.675C62.1031 444.072 62.3247 444.643 62.3247 445.39C62.3247 445.857 62.1731 446.3 61.8697 446.72C61.5664 447.14 61.1697 447.42 60.6797 447.56L62.5697 451.165H61.5547L59.7347 447.595H58.1597V451.165H57.2497V443.045ZM59.7347 446.79C60.2947 446.79 60.7147 446.662 60.9947 446.405C61.2514 446.172 61.3797 445.833 61.3797 445.39C61.3797 444.947 61.2514 444.585 60.9947 444.305C60.7147 444.048 60.2947 443.92 59.7347 443.92H58.1597V446.79H59.7347ZM68.6865 440V419.35H71.8365V440H68.6865ZM72.8865 440V419.35H73.9365V440H72.8865ZM74.9865 440V419.35H78.1365V440H74.9865ZM82.3365 440V419.35H83.3865V440H82.3365ZM84.4365 440V419.35H85.4865V440H84.4365ZM75.1265 443.045H80.0965V443.85H75.9665V446.51H79.3965V447.35H75.9665V450.36H80.0615V451.165H75.1265V443.045ZM86.5283 440V419.35H89.6783V440H86.5283ZM90.7283 440V419.35H91.7783V440H90.7283ZM92.8283 440V419.35H93.8783V440H92.8283ZM98.0783 440V419.35H99.1283V440H98.0783ZM100.178 440V419.35H103.328V440H100.178ZM96.7483 448.785H94.1233L93.3183 451.165H92.4083L95.3833 442.905H95.4883L98.4983 451.165H97.5533L96.7483 448.785ZM96.5033 448.085L95.4533 445.005L94.3683 448.085H96.5033ZM104.37 440V419.35H105.42V440H104.37ZM106.47 440V419.35H107.52V440H106.47ZM108.57 440V419.35H111.72V440H108.57ZM112.77 440V419.35H115.92V440H112.77ZM120.12 440V419.35H121.17V440H120.12ZM112.735 443.85H110.46V443.045H116.06V443.85H113.68V451.165H112.735V443.85ZM122.212 440V419.35H125.362V440H122.212ZM126.412 440V419.35H127.462V440H126.412ZM128.512 440V419.35H131.662V440H128.512ZM135.862 440V419.35H136.912V440H135.862ZM137.962 440V419.35H139.012V440H137.962ZM128.652 443.045H133.622V443.85H129.492V446.51H132.922V447.35H129.492V450.36H133.587V451.165H128.652V443.045ZM140.054 440V419.35H141.104V440H140.054ZM145.304 440V419.35H146.354V440H145.304ZM147.404 440V419.35H148.454V440H147.404ZM149.504 440V419.35H152.654V440H149.504ZM153.704 440V419.35H156.854V440H153.704ZM146.634 446.65H151.324V447.525H146.634V446.65ZM157.896 440V419.35H161.046V440H157.896ZM162.096 440V419.35H163.146V440H162.096ZM164.196 440V419.35H165.246V440H164.196ZM166.296 440V419.35H169.446V440H166.296ZM173.646 440V419.35H174.696V440H173.646ZM164.301 443.045H166.681C167.614 443.045 168.291 443.255 168.711 443.675C169.154 444.072 169.376 444.643 169.376 445.39C169.376 445.857 169.224 446.3 168.921 446.72C168.617 447.14 168.221 447.42 167.731 447.56L169.621 451.165H168.606L166.786 447.595H165.211V451.165H164.301V443.045ZM166.786 446.79C167.346 446.79 167.766 446.662 168.046 446.405C168.302 446.172 168.431 445.833 168.431 445.39C168.431 444.947 168.302 444.585 168.046 444.305C167.766 444.048 167.346 443.92 166.786 443.92H165.211V446.79H166.786ZM175.737 440V419.35H178.887V440H175.737ZM179.937 440V419.35H180.987V440H179.937ZM182.037 440V419.35H185.187V440H182.037ZM189.387 440V419.35H190.437V440H189.387ZM191.487 440V419.35H192.537V440H191.487ZM182.177 443.045H187.147V443.85H183.017V446.51H186.447V447.35H183.017V450.36H187.112V451.165H182.177V443.045ZM193.579 440V419.35H196.729V440H193.579ZM197.779 440V419.35H198.829V440H197.779ZM199.879 440V419.35H200.929V440H199.879ZM205.129 440V419.35H206.179V440H205.129ZM207.229 440V419.35H210.379V440H207.229ZM203.799 448.785H201.174L200.369 451.165H199.459L202.434 442.905H202.539L205.549 451.165H204.604L203.799 448.785ZM203.554 448.085L202.504 445.005L201.419 448.085H203.554ZM211.421 440V419.35H214.571V440H211.421ZM215.621 440V419.35H218.771V440H215.621ZM219.821 440V419.35H220.871V440H219.821ZM225.071 440V419.35H226.121V440H225.071ZM227.171 440V419.35H228.221V440H227.171ZM220.801 451.305C220.194 451.305 219.658 451.153 219.191 450.85C218.701 450.547 218.316 450.092 218.036 449.485C217.756 448.855 217.616 448.073 217.616 447.14C217.616 446.16 217.768 445.355 218.071 444.725C218.374 444.118 218.759 443.675 219.226 443.395C219.693 443.138 220.194 443.01 220.731 443.01C221.314 443.01 221.816 443.15 222.236 443.43C222.656 443.71 222.971 444.095 223.181 444.585L222.411 444.97L222.306 445.005L222.271 444.935V444.83C222.271 444.737 222.213 444.608 222.096 444.445C221.909 444.188 221.699 444.002 221.466 443.885C221.233 443.768 220.988 443.71 220.731 443.71C220.031 443.71 219.483 444.013 219.086 444.62C218.713 445.203 218.526 446.032 218.526 447.105C218.526 447.758 218.619 448.353 218.806 448.89C219.016 449.403 219.284 449.8 219.611 450.08C219.961 450.36 220.346 450.5 220.766 450.5C221.093 450.5 221.396 450.418 221.676 450.255C221.979 450.068 222.224 449.823 222.411 449.52L223.076 449.975C222.796 450.418 222.481 450.745 222.131 450.955C221.758 451.188 221.314 451.305 220.801 451.305ZM229.263 440V419.35H230.313V440H229.263ZM231.363 440V419.35H232.413V440H231.363ZM233.463 440V419.35H236.613V440H233.463ZM237.663 440V419.35H240.813V440H237.663ZM245.013 440V419.35H246.063V440H245.013ZM237.628 443.85H235.353V443.045H240.953V443.85H238.573V451.165H237.628V443.85ZM247.104 440V419.35H248.154V440H247.104ZM252.354 440V419.35H253.404V440H252.354ZM254.454 440V419.35H255.504V440H254.454ZM256.554 440V419.35H259.704V440H256.554ZM260.754 440V419.35H263.904V440H260.754ZM253.684 446.65H258.374V447.525H253.684V446.65ZM264.946 440V419.35H265.996V440H264.946ZM270.196 440V419.35H273.346V440H270.196ZM274.396 440V419.35H275.446V440H274.396ZM276.496 440V419.35H277.546V440H276.496ZM278.596 440V419.35H281.746V440H278.596ZM270.931 443.045H271.876L273.976 449.275L275.936 443.045H276.846L274.116 451.2H273.696L270.931 443.045ZM282.788 440V419.35H283.838V440H282.788ZM284.888 440V419.35H288.038V440H284.888ZM289.088 440V419.35H290.138V440H289.088ZM291.188 440V419.35H294.338V440H291.188ZM298.538 440V419.35H299.588V440H298.538ZM291.678 451.305C290.628 451.305 289.776 450.955 289.123 450.255L289.613 449.45L289.648 449.345L289.753 449.38C289.753 449.403 289.765 449.45 289.788 449.52C289.788 449.567 289.811 449.625 289.858 449.695C289.881 449.742 289.928 449.788 289.998 449.835C290.488 450.255 291.095 450.465 291.818 450.465C292.285 450.465 292.681 450.337 293.008 450.08C293.335 449.8 293.498 449.473 293.498 449.1C293.498 448.843 293.44 448.622 293.323 448.435C293.23 448.272 293.055 448.108 292.798 447.945C292.541 447.782 292.145 447.583 291.608 447.35C290.815 447.047 290.243 446.697 289.893 446.3C289.566 445.903 289.403 445.46 289.403 444.97C289.403 444.363 289.625 443.873 290.068 443.5C290.511 443.127 291.106 442.94 291.853 442.94C292.296 442.94 292.716 443.033 293.113 443.22C293.486 443.407 293.825 443.652 294.128 443.955L293.533 444.76L293.463 444.69C293.463 444.667 293.451 444.632 293.428 444.585C293.428 444.515 293.405 444.457 293.358 444.41C293.335 444.34 293.288 444.282 293.218 444.235C293.031 444.048 292.81 443.908 292.553 443.815C292.32 443.745 292.04 443.71 291.713 443.71C291.293 443.71 290.966 443.827 290.733 444.06C290.476 444.293 290.348 444.573 290.348 444.9C290.348 445.157 290.395 445.378 290.488 445.565C290.605 445.752 290.803 445.927 291.083 446.09C291.363 446.277 291.783 446.475 292.343 446.685C293.113 447.012 293.65 447.338 293.953 447.665C294.233 448.015 294.373 448.447 294.373 448.96C294.373 449.357 294.28 449.73 294.093 450.08C293.883 450.43 293.58 450.722 293.183 450.955C292.763 451.188 292.261 451.305 291.678 451.305ZM300.63 440V419.35H303.78V440H300.63ZM304.83 440V419.35H307.98V440H304.83ZM309.03 440V419.35H310.08V440H309.03ZM314.28 440V419.35H315.33V440H314.28ZM316.38 440V419.35H317.43V440H316.38ZM310.01 451.305C309.403 451.305 308.867 451.153 308.4 450.85C307.91 450.547 307.525 450.092 307.245 449.485C306.965 448.855 306.825 448.073 306.825 447.14C306.825 446.16 306.977 445.355 307.28 444.725C307.583 444.118 307.968 443.675 308.435 443.395C308.902 443.138 309.403 443.01 309.94 443.01C310.523 443.01 311.025 443.15 311.445 443.43C311.865 443.71 312.18 444.095 312.39 444.585L311.62 444.97L311.515 445.005L311.48 444.935V444.83C311.48 444.737 311.422 444.608 311.305 444.445C311.118 444.188 310.908 444.002 310.675 443.885C310.442 443.768 310.197 443.71 309.94 443.71C309.24 443.71 308.692 444.013 308.295 444.62C307.922 445.203 307.735 446.032 307.735 447.105C307.735 447.758 307.828 448.353 308.015 448.89C308.225 449.403 308.493 449.8 308.82 450.08C309.17 450.36 309.555 450.5 309.975 450.5C310.302 450.5 310.605 450.418 310.885 450.255C311.188 450.068 311.433 449.823 311.62 449.52L312.285 449.975C312.005 450.418 311.69 450.745 311.34 450.955C310.967 451.188 310.523 451.305 310.01 451.305ZM318.472 440V419.35H321.622V440H318.472ZM322.672 440V419.35H323.722V440H322.672ZM324.772 440V419.35H327.922V440H324.772ZM328.972 440V419.35H330.022V440H328.972ZM334.222 440V419.35H335.272V440H334.222ZM327.397 451.305C326.463 451.305 325.752 450.943 325.262 450.22C324.748 449.497 324.492 448.47 324.492 447.14C324.492 445.857 324.748 444.842 325.262 444.095C325.775 443.372 326.487 443.01 327.397 443.01C328.307 443.01 329.018 443.372 329.532 444.095C330.045 444.842 330.302 445.857 330.302 447.14C330.302 448.47 330.045 449.497 329.532 450.22C329.042 450.943 328.33 451.305 327.397 451.305ZM327.397 450.5C328.027 450.5 328.505 450.22 328.832 449.66C329.182 449.077 329.357 448.237 329.357 447.14C329.357 446.113 329.182 445.297 328.832 444.69C328.482 444.107 328.003 443.815 327.397 443.815C326.79 443.815 326.312 444.107 325.962 444.69C325.612 445.297 325.437 446.113 325.437 447.14C325.437 448.237 325.6 449.077 325.927 449.66C326.277 450.22 326.767 450.5 327.397 450.5ZM336.313 440V419.35H337.363V440H336.313ZM338.413 440V419.35H339.463V440H338.413ZM340.513 440V419.35H343.663V440H340.513ZM347.863 440V419.35H348.913V440H347.863ZM349.963 440V419.35H353.113V440H349.963ZM342.683 443.045H344.573C345.25 443.045 345.775 443.138 346.148 443.325C346.545 443.512 346.883 443.792 347.163 444.165C347.7 444.865 347.968 445.857 347.968 447.14C347.922 448.47 347.618 449.473 347.058 450.15C346.498 450.85 345.623 451.188 344.433 451.165H342.683V443.045ZM344.363 450.465C346.16 450.465 347.058 449.38 347.058 447.21C347.058 446.113 346.86 445.273 346.463 444.69C346.043 444.107 345.39 443.815 344.503 443.815H343.558V450.465H344.363ZM354.155 440V419.35H357.305V440H354.155ZM358.355 440V419.35H359.405V440H358.355ZM360.455 440V419.35H363.605V440H360.455ZM367.805 440V419.35H368.855V440H367.805ZM369.905 440V419.35H370.955V440H369.905ZM360.595 443.045H365.565V443.85H361.435V446.51H364.865V447.35H361.435V450.36H365.53V451.165H360.595V443.045Z" fill="#2B303B"/>
</g>
<circle cx="202.5" cy="202.5" r="202.5" fill="#2B303B"/>
<g filter="url(#filter1_d)">
<path d="M256.875 202.847C256.875 245.131 249.771 282.944 238.661 309.814C233.097 323.272 226.725 333.507 220.161 340.222C213.629 346.904 207.53 349.524 202.098 349.524C196.667 349.524 190.567 346.904 184.035 340.222C177.471 333.507 171.1 323.272 165.535 309.814C154.426 282.944 147.321 245.131 147.321 202.847C147.321 160.564 154.426 122.751 165.535 95.8803C171.1 82.4221 177.471 72.1875 184.035 65.4724C190.567 58.7902 196.667 56.1698 202.098 56.1698C207.53 56.1698 213.629 58.7902 220.161 65.4724C226.725 72.1875 233.097 82.4221 238.661 95.8803C249.771 122.751 256.875 160.564 256.875 202.847Z" stroke="#A8F79A" stroke-width="20"/>
</g>
<g filter="url(#filter2_d)">
<path d="M229.487 155.409C266.105 176.551 295.3 201.61 313.016 224.666C321.889 236.214 327.566 246.849 330.1 255.891C332.621 264.889 331.84 271.482 329.124 276.186C326.409 280.89 321.09 284.862 312.037 287.178C302.939 289.505 290.89 289.905 276.453 287.995C247.628 284.181 211.328 271.427 174.71 250.285C138.091 229.144 108.896 204.084 91.1807 181.028C82.3076 169.48 76.6301 158.845 74.0966 149.803C71.5756 140.805 72.356 134.213 75.0719 129.508C77.7877 124.804 83.1068 120.832 92.1597 118.517C101.257 116.19 113.306 115.789 127.744 117.699C156.569 121.514 192.868 134.267 229.487 155.409Z" stroke="#AEE9F5" stroke-width="20"/>
</g>
<g filter="url(#filter3_d)">
<path d="M229.483 250.286C192.864 271.427 156.565 284.181 127.74 287.995C113.303 289.906 101.253 289.505 92.1558 287.178C83.1029 284.862 77.7839 280.89 75.068 276.186C72.3521 271.482 71.5717 264.889 74.0928 255.892C76.6263 246.85 82.3038 236.214 91.1768 224.666C108.893 201.61 138.087 176.551 174.706 155.409C211.324 134.267 247.624 121.514 276.449 117.699C290.886 115.789 302.935 116.19 312.033 118.517C321.086 120.833 326.405 124.805 329.121 129.509C331.836 134.213 332.617 140.805 330.096 149.803C327.562 158.845 321.885 169.481 313.012 181.028C295.296 204.085 266.101 229.144 229.483 250.286Z" stroke="#EBEA8B" stroke-width="20"/>
</g>
<g filter="url(#filter4_d)">
<path d="M204.121 231.66C218.883 231.66 230.851 219.692 230.851 204.93C230.851 190.167 218.883 178.2 204.121 178.2C189.358 178.2 177.391 190.167 177.391 204.93C177.391 219.692 189.358 231.66 204.121 231.66Z" fill="#F699D9"/>
</g>
<defs>
<filter id="filter0_d" x="29.0029" y="419.35" width="345.952" height="39.955" filterUnits="userSpaceOnUse" color-interpolation-filters="sRGB">
<feFlood flood-opacity="0" result="BackgroundImageFix"/>
<feColorMatrix in="SourceAlpha" type="matrix" values="0 0 0 0 0 0 0 0 0 0 0 0 0 0 0 0 0 0 127 0"/>
<feOffset dy="4"/>
<feGaussianBlur stdDeviation="2"/>
<feColorMatrix type="matrix" values="0 0 0 0 0 0 0 0 0 0 0 0 0 0 0 0 0 0 0.25 0"/>
<feBlend mode="normal" in2="BackgroundImageFix" result="effect1_dropShadow"/>
<feBlend mode="normal" in="SourceGraphic" in2="effect1_dropShadow" result="shape"/>
</filter>
<filter id="filter1_d" x="133.321" y="46.1698" width="137.554" height="321.355" filterUnits="userSpaceOnUse" color-interpolation-filters="sRGB">
<feFlood flood-opacity="0" result="BackgroundImageFix"/>
<feColorMatrix in="SourceAlpha" type="matrix" values="0 0 0 0 0 0 0 0 0 0 0 0 0 0 0 0 0 0 127 0"/>
<feOffset dy="4"/>
<feGaussianBlur stdDeviation="2"/>
<feColorMatrix type="matrix" values="0 0 0 0 0 0 0 0 0 0 0 0 0 0 0 0 0 0 0.25 0"/>
<feBlend mode="normal" in2="BackgroundImageFix" result="effect1_dropShadow"/>
<feBlend mode="normal" in="SourceGraphic" in2="effect1_dropShadow" result="shape"/>
</filter>
<filter id="filter2_d" x="30.0231" y="68.41" width="344.15" height="276.874" filterUnits="userSpaceOnUse" color-interpolation-filters="sRGB">
<feFlood flood-opacity="0" result="BackgroundImageFix"/>
<feColorMatrix in="SourceAlpha" type="matrix" values="0 0 0 0 0 0 0 0 0 0 0 0 0 0 0 0 0 0 127 0"/>
<feOffset dy="4"/>
<feGaussianBlur stdDeviation="2"/>
<feColorMatrix type="matrix" values="0 0 0 0 0 0 0 0 0 0 0 0 0 0 0 0 0 0 0.25 0"/>
<feBlend mode="normal" in2="BackgroundImageFix" result="effect1_dropShadow"/>
<feBlend mode="normal" in="SourceGraphic" in2="effect1_dropShadow" result="shape"/>
</filter>
<filter id="filter3_d" x="30.0193" y="68.4102" width="344.15" height="276.874" filterUnits="userSpaceOnUse" color-interpolation-filters="sRGB">
<feFlood flood-opacity="0" result="BackgroundImageFix"/>
<feColorMatrix in="SourceAlpha" type="matrix" values="0 0 0 0 0 0 0 0 0 0 0 0 0 0 0 0 0 0 127 0"/>
<feOffset dy="4"/>
<feGaussianBlur stdDeviation="2"/>
<feColorMatrix type="matrix" values="0 0 0 0 0 0 0 0 0 0 0 0 0 0 0 0 0 0 0.25 0"/>
<feBlend mode="normal" in2="BackgroundImageFix" result="effect1_dropShadow"/>
<feBlend mode="normal" in="SourceGraphic" in2="effect1_dropShadow" result="shape"/>
</filter>
<filter id="filter4_d" x="173.391" y="178.2" width="61.46" height="61.46" filterUnits="userSpaceOnUse" color-interpolation-filters="sRGB">
<feFlood flood-opacity="0" result="BackgroundImageFix"/>
<feColorMatrix in="SourceAlpha" type="matrix" values="0 0 0 0 0 0 0 0 0 0 0 0 0 0 0 0 0 0 127 0"/>
<feOffset dy="4"/>
<feGaussianBlur stdDeviation="2"/>
<feColorMatrix type="matrix" values="0 0 0 0 0 0 0 0 0 0 0 0 0 0 0 0 0 0 0.25 0"/>
<feBlend mode="normal" in2="BackgroundImageFix" result="effect1_dropShadow"/>
<feBlend mode="normal" in="SourceGraphic" in2="effect1_dropShadow" result="shape"/>
</filter>
</defs>
</svg>
